/* XPM */
static char *result[] = {
/* columns rows colors chars-per-pixel */
"50 50 146 2 ",
"   c #352A41",
".  c #3D3245",
"X  c #413246",
"o  c #463947",
"O  c #4D3C44",
"+  c #423548",
"@  c #463B4E",
"#  c #4B3D4D",
"$  c #503E49",
"%  c #4B3E51",
"&  c #4F4047",
"*  c #594343",
"=  c #5F4A45",
"-  c #53454E",
";  c #4D4354",
":  c #4E4359",
">  c #534553",
",  c #574A55",
"<  c #53475A",
"1  c #544A5C",
"2  c #5D4E5C",
"3  c #614A44",
"4  c #6C4E43",
"5  c #614E4C",
"6  c #684D48",
"7  c #6D5345",
"8  c #65504C",
"9  c #6D564C",
"0  c #6D584E",
"q  c #715546",
"w  c #7F5C42",
"e  c #725849",
"r  c #62555D",
"t  c #6B5B5C",
"y  c #7D624C",
"u  c #746357",
"i  c #7F6552",
"p  c #574E60",
"a  c #5A4F61",
"s  c #5D5464",
"d  c #615769",
"f  c #635A6A",
"g  c #655D70",
"h  c #6C5E71",
"j  c #6A616F",
"k  c #7F6B61",
"l  c #796B6C",
"z  c #6E6573",
"x  c #756D7A",
"c  c #856044",
"v  c #856548",
"b  c #856849",
"n  c #936B44",
"m  c #906748",
"M  c #926C49",
"N  c #99744A",
"B  c #9F7A4E",
"V  c #836752",
"C  c #866C56",
"Z  c #88725F",
"A  c #907455",
"S  c #A47444",
"D  c #AA7341",
"F  c #A07847",
"G  c #AA7D4A",
"H  c #B37C44",
"J  c #BB7F42",
"K  c #B57F48",
"L  c #897567",
"P  c #84736A",
"I  c #AF814C",
"U  c #BA8146",
"Y  c #B58149",
"T  c #BE8749",
"R  c #AC8250",
"E  c #A2845C",
"W  c #BC945B",
"Q  c #918178",
"!  c #988778",
"~  c #A0907D",
"^  c #A8957C",
"/  c #C18648",
"(  c #C48C4C",
")  c #C5914C",
"_  c #CC944C",
"`  c #D1994E",
"'  c #C79553",
"]  c #C49857",
"[  c #CF9D53",
"{  c #CF9C58",
"}  c #D59B53",
"|  c #DA9F53",
" . c #CEA65D",
".. c #DDA553",
"X. c #D4A359",
"o. c #DFA759",
"O. c #D7AB5B",
"+. c #E2AB54",
"@. c #E3AE5A",
"#. c #EAB35A",
"$. c #EEBB5E",
"%. c #F1BD5E",
"&. c #C0A167",
"*. c #CBA76D",
"=. c #D8AA60",
"-. c #DDB26A",
";. c #D0AF70",
":. c #DAB573",
">. c #DCB873",
",. c #DAB679",
"<. c #DABB79",
"1. c #E7B862",
"2. c #EBBB62",
"3. c #E6B669",
"4. c #E5BC6F",
"5. c #E5BE74",
"6. c #F3C565",
"7. c #F1C56B",
"8. c #E7C377",
"9. c #EAC87F",
"0. c #F3CC75",
"q. c #F0CC7C",
"w. c #F5D076",
"e. c #A99B86",
"r. c #AD9F8B",
"t. c #B3A388",
"y. c #B9AA8C",
"u. c #C6B18A",
"i. c #CCB689",
"p. c #DABC82",
"a. c #D7BE8A",
"s. c #C8B492",
"d. c #CDBC9A",
"f. c #DEC480",
"g. c #DCC58B",
"h. c #DDC594",
"j. c #D6C298",
"k. c #EDCD85",
"l. c #E5C98D",
"z. c #F6D887",
"x. c #E6CD96",
"c. c #EBCF90",
"v. c #D0C2A4",
"b. c #D6CAA6",
"n. c #D8C8A1",
"m. c None",
/* pixels */
"m.m.m.m.m.m.m.m.m.m.m.m.m.m.m.m.m.m.m.m.m.m.m.m.m.m.m.m.m.m.m.m.m.m.m.m.m.m.m.m.m.m.m.m.m.m.m.m.m.m.",
"m.m.m.m.m.m.m.m.m.m.m.m.m.m.m.m.m.m.m.m.m.m.m.m.m.m.m.m.m.m.m.m.m.m.m.m.m.m.m.m.m.m.m.m.m.m.m.m.m.m.",
"m.m.m.m.m.m.m.m.m.m.m.m.m.m.m.m.m.m.m.m.m.m.m.m.m.m.m.m.m.m.m.m.m.m.m.m.m.m.m.m.m.m.m.m.m.m.m.m.m.m.",
"m.m.m.m.m.m.m.m.m.m.m.m.m.m.m.m.m.m.m.m.m.m.m.m.m.m.m.m.m.m.m.m.m.m.m.m.m.m.m.m.m.m.m.m.m.m.m.m.m.m.",
"m.m.m.m.m.m.m.m.m.m.m.m.m.m.m.m.m.m.m.m.m.m.m.m.m.m.m.m.m.m.m.m.m.m.m.m.m.m.m.m.m.m.m.m.m.m.m.m.m.m.",
"m.m.m.m.m.m.m.m.m.m.m.m.m.m.m.m.m.m.m.m.m.m.m.m.m.m.m.m.m.m.m.m.m.m.m.m.m.m.m.m.m.m.m.m.m.m.m.m.m.m.",
"m.m.m.m.m.m.m.m.m.m.m.m.m.m.m.m.m.m.m.m.m.m.m.m.m.m.m.m.m.m.m.m.m.m.m.m.m.m.m.m.m.m.m.m.m.m.m.m.m.m.",
"m.m.m.m.m.m.m.m.m.m.m.m.m.m.m.m.m.m.m.m.m.m.m.m.m.m.m.m.m.m.m.m.m.m.m.m.m.m.m.m.m.m.m.m.m.m.m.m.m.m.",
"m.m.m.m.m.m.m.m.m.m.m.m.m.m.m.m.m.m.m.m.m.m.m.m.m.m.m.m.m.m.m.m.m.m.m.m.m.m.m.m.m.m.m.m.m.m.m.m.m.m.",
"m.m.m.m.m.m.m.m.m.m.m.m.m.m.m.m.m.m.m.m.m.m.m.m.m.m.m.m.m.m.m.m.m.m.m.m.m.m.m.m.m.m.m.m.m.m.m.m.m.m.",
"m.m.m.m.m.m.m.m.m.m.m.m.m.m.m.m.m.m.m.m.m.m.m.m.m.m.m.m.m.m.m.m.m.m.m.m.m.m.m.m.m.m.m.m.m.m.m.m.m.m.",
"m.m.m.m.m.m.m.m.m.m.m.m.m.m.m.m.m.m.m.m.m.m.m.m.m.; # @ < > , > < m.m.m.m.m.m.m.m.m.m.m.m.m.m.m.m.m.",
"m.m.m.m.m.m.m.m.m.m.m.m.m.m.m.m.m.m.m.m.m.m.m.s > r.b.v.e.a.k.l.! @ m.m.m.m.m.m.m.m.m.m.m.m.m.m.m.m.",
"m.m.m.m.m.m.m.m.m.m.m.m.m.m.m.m.m.m.m.m.m.m.j , j.k.<.1.0.2.=.2.k.t j m.m.m.m.m.m.m.m.m.m.m.m.m.m.m.",
"m.m.m.m.m.m.m.m.m.m.m.m.m.m.m.m.m.m.m.m.m.m.% y.-.2.I 7 b 8 < i 7.L f m.m.m.m.m.m.m.m.m.m.m.m.m.m.m.",
"m.m.m.m.m.m.m.m.m.m.m.m.m.m.m.m.m.m.m.m.m.m.; l.1.) % z p m.m.0 2.8 m.m.m.m.m.m.m.m.m.m.m.m.m.m.m.m.",
"m.m.m.m.m.m.m.m.m.m.m.m.m.m.m.m.m.m.m.m.m.m.r :.%.M g m.m.m.p B $.V s m.m.m.m.m.m.m.m.m.m.m.m.m.m.m.",
"m.m.m.m.m.m.m.m.m.m.m.m.m.m.m.m.m.m.m.m.m.m.d :.%.R 1 m.m.m.g i 1.W 1 m.m.m.m.m.m.m.m.m.m.m.m.m.m.m.",
"m.m.m.m.m.m.m.m.m.m.m.m.m.m.m.m.m.m.m.m.m.m.> :.2.w a m.m.m.f L @.] < m.m.m.m.m.m.m.m.m.m.m.m.m.m.m.",
"m.m.m.m.m.m.m.m.m.m.m.m.m.m.m.m.m.m.m.m.m.m.% &.O.o m.h ; 2 t :.} B 1 m.m.m.m.m.m.m.m.m.m.m.m.m.m.m.",
"m.m.m.m.m.m.m.m.m.m.m.m.m.m.m.m.m.m.m.m.m.m.1 E $.A ; > i.g.8._ [ 3 m.m.m.m.m.m.m.m.m.m.m.m.m.m.m.m.",
"m.m.m.m.m.m.m.m.m.m.m.m.m.m.m.m.m.m.m.m.m.m.# ;.$.$.*.<.X.) U _ v : m.m.m.m.m.m.m.m.m.m.m.m.m.m.m.m.",
"m.m.m.m.m.m.m.m.m.m.m.m.m.m.m.m.m.m.m.m.m.< i 5.} #.X.[ ) _ S * % m.m.m.m.m.m.m.m.m.m.m.m.m.m.m.m.m.",
"m.m.m.m.m.m.m.m.m.m.m.m.m.m.m.m.m.m.m.m.m.% - C X.M . . # + @ z m.m.m.m.m.m.m.m.m.m.m.m.m.m.m.m.m.m.",
"m.m.m.m.m.m.m.m.m.m.m.m.m.m.m.m.m.m.m.m.1 Q <.q 6 O m.m.m.m.m.m.m.m.m.m.m.m.m.m.m.m.m.m.m.m.m.m.m.m.",
"m.m.m.m.m.m.m.m.m.m.m.m.m.m.m.m.m.m.m.f l c.' N . s m.m.m.m.m.m.m.m.m.m.m.m.m.m.m.m.m.m.m.m.m.m.m.m.",
"m.m.m.m.m.m.m.m.m.m.m.m.m.m.m.m.m.m.z r x.' G o m.m.m.m.m.m.m.m.m.m.m.m.m.m.m.m.m.m.m.m.m.m.m.m.m.m.",
"m.m.m.m.m.m.m.m.m.m.m.m.m.m.m.m.m.x , j.{ Y & m.m.m.m.m.m.m.m.m.m.m.m.m.m.m.m.m.m.m.m.m.m.m.m.m.m.m.",
"m.m.m.m.m.m.m.m.m.m.m.m.m.m.m.m.m.> s.=.H 3 f m.m.m.m.m.m.m.m.m.m.m.m.m.m.m.m.m.m.m.m.m.m.m.m.m.m.m.",
"m.m.m.m.m.m.m.m.m.m.m.m.m.m.m.m.; t.-.Y q s m.m.m.m.m.m.m.m.m.m.m.m.m.m.m.m.m.m.m.m.m.m.m.m.m.m.m.m.",
"m.m.m.m.m.m.m.m.m.m.m.m.m.m.m.; ~ 5.D w < m.m.d m.m.m.m.m.m.m.m.m.m.m.m.m.m.m.m.m.m.m.m.m.m.m.m.m.m.",
"m.m.m.m.m.m.m.m.m.m.m.m.m.m.1 P 9.H n 6 % m.s 2 X f m.m.m.m.m.m.m.m.m.m.m.m.m.m.m.m.m.m.m.m.m.m.m.m.",
"m.m.m.m.m.m.m.m.m.m.m.m.m.p t k.( S M 3.^ # , n.P - s m.m.m.m.m.m.m.m.m.m.m.m.m.m.m.m.m.m.m.m.m.m.m.",
"m.m.m.m.m.m.m.m.m.m.m.m.f - f...Y 7 | #.7.u.d.z.q.8.9 s m.m.m.m.m.m.m.m.m.m.m.m.m.m.m.m.m.m.m.m.m.m.",
"m.m.m.m.m.m.m.m.m.m.m.m.@ u 1...* . c / ..6.0.6.+.[ 5 m.m.m.m.m.m.m.m.m.m.m.m.m.m.m.m.m.m.m.m.m.m.m.",
"m.m.m.m.m.m.m.m.m.m.m.m.m.  7 7 1 m.# 4 U ` %.+.T e < m.m.m.m.m.m.m.m.m.m.m.m.m.m.m.m.m.m.m.m.m.m.m.",
"m.m.m.m.m.m.m.m.m.m.m.m.m.m.. p m.m.m.2 * H _ T b ; m.m.m.m.m.m.m.m.m.m.m.m.m.m.m.m.m.m.m.m.m.m.m.m.",
"m.m.m.m.m.m.m.m.m.m.m.m.m.m.m.m.m.m.m.m.f O G N ; m.m.m.m.m.m.m.m.m.m.m.m.m.m.m.m.m.m.m.m.m.m.m.m.m.",
"m.m.m.m.m.m.m.m.m.m.m.m.m.m.m.m.m.m.m.m.m.z o > m.m.m.m.m.m.m.m.m.m.m.m.m.m.m.m.m.m.m.m.m.m.m.m.m.m.",
"m.m.m.m.m.m.m.m.m.m.m.m.m.m.m.m.m.m.m.m.m.m.m.m.m.m.m.m.m.m.m.m.m.m.m.m.m.m.m.m.m.m.m.m.m.m.m.m.m.m.",
"m.m.m.m.m.m.m.m.m.m.m.m.m.m.m.m.m.m.m.m.m.m.m.m.m.m.m.m.m.m.m.m.m.m.m.m.m.m.m.m.m.m.m.m.m.m.m.m.m.m.",
"m.m.m.m.m.m.m.m.m.m.m.m.m.m.m.m.m.m.m.m.m.m.m.m.m.m.m.m.m.m.m.m.m.m.m.m.m.m.m.m.m.m.m.m.m.m.m.m.m.m.",
"m.m.m.m.m.m.m.m.m.m.m.m.m.m.m.m.m.m.m.m.m.m.m.m.m.m.m.m.m.m.m.m.m.m.m.m.m.m.m.m.m.m.m.m.m.m.m.m.m.m.",
"m.m.m.m.m.m.m.m.m.m.m.m.m.m.m.m.m.m.m.m.m.m.m.m.m.m.m.m.m.m.m.m.m.m.m.m.m.m.m.m.m.m.m.m.m.m.m.m.m.m.",
"m.m.m.m.m.m.m.m.m.m.m.m.m.m.m.m.m.m.m.m.m.m.m.m.m.m.m.m.m.m.m.m.m.m.m.m.m.m.m.m.m.m.m.m.m.m.m.m.m.m.",
"m.m.m.m.m.m.m.m.m.m.m.m.m.m.m.m.m.m.m.m.m.m.m.m.m.m.m.m.m.m.m.m.m.m.m.m.m.m.m.m.m.m.m.m.m.m.m.m.m.m.",
"m.m.m.m.m.m.m.m.m.m.m.m.m.m.m.m.m.m.m.m.m.m.m.m.m.m.m.m.m.m.m.m.m.m.m.m.m.m.m.m.m.m.m.m.m.m.m.m.m.m.",
"m.m.m.m.m.m.m.m.m.m.m.m.m.m.m.m.m.m.m.m.m.m.m.m.m.m.m.m.m.m.m.m.m.m.m.m.m.m.m.m.m.m.m.m.m.m.m.m.m.m.",
"m.m.m.m.m.m.m.m.m.m.m.m.m.m.m.m.m.m.m.m.m.m.m.m.m.m.m.m.m.m.m.m.m.m.m.m.m.m.m.m.m.m.m.m.m.m.m.m.m.m.",
"m.m.m.m.m.m.m.m.m.m.m.m.m.m.m.m.m.m.m.m.m.m.m.m.m.m.m.m.m.m.m.m.m.m.m.m.m.m.m.m.m.m.m.m.m.m.m.m.m.m."
};
