/* XPM */
static char *result[] = {
/* columns rows colors chars-per-pixel */
"50 50 146 2 ",
"   c #2F2837",
".  c #372B37",
"X  c #392836",
"o  c #362C3A",
"O  c #3B2E3A",
"+  c #37303C",
"@  c #3C313F",
"#  c #3C3C3B",
"$  c #422E3B",
"%  c #44323D",
"&  c #4A333E",
"*  c #413B3F",
"=  c #3D3543",
"-  c #423542",
";  c #4C3641",
":  c #443A46",
">  c #4B3A45",
",  c #453C4A",
"<  c #4B3E4A",
"1  c #503742",
"2  c #543B44",
"3  c #593E46",
"4  c #523F49",
"5  c #5C3F48",
"6  c #454442",
"7  c #4B4B42",
"8  c #4B424D",
"9  c #4D4B4B",
"0  c #5B4047",
"q  c #51424C",
"w  c #5D4149",
"e  c #4D5143",
"r  c #515445",
"t  c #52524C",
"y  c #575B49",
"u  c #5A5D4C",
"i  c #4D4552",
"p  c #4F4852",
"a  c #4F4A58",
"s  c #504652",
"d  c #594752",
"f  c #534C55",
"g  c #5E4B55",
"h  c #554D5B",
"j  c #565057",
"k  c #595356",
"l  c #595B50",
"z  c #565159",
"x  c #5B545C",
"c  c #5D585E",
"v  c #63454C",
"b  c #68474D",
"n  c #66494E",
"m  c #6A4A4F",
"M  c #674C50",
"N  c #6C4D51",
"B  c #624F58",
"V  c #714F52",
"C  c #6E5054",
"Z  c #66525B",
"A  c #6B555D",
"S  c #745355",
"D  c #795657",
"F  c #755658",
"G  c #795758",
"H  c #7C5B5B",
"J  c #5D614D",
"K  c #61664E",
"L  c #646A51",
"P  c #67675E",
"I  c #5C5563",
"U  c #5E5963",
"Y  c #5F5868",
"T  c #635C63",
"R  c #615B69",
"E  c #666066",
"W  c #696267",
"Q  c #66616B",
"!  c #6B656A",
"~  c #6E696D",
"^  c #716B6F",
"/  c #6B6573",
"(  c #736D71",
")  c #736D7C",
"_  c #767175",
"`  c #797376",
"'  c #77727C",
"]  c #7B7679",
"[  c #7E797C",
"{  c #815E5D",
"}  c #84615F",
"|  c #856261",
" . c #896563",
".. c #8D6965",
"X. c #8F6C69",
"o. c #906B67",
"O. c #926D69",
"+. c #97706B",
"@. c #817C7E",
"#. c #A57B73",
"$. c #787180",
"%. c #837E81",
"&. c #868183",
"*. c #898486",
"=. c #8B8688",
"-. c #8E898A",
";. c #928D8E",
":. c #95908F",
">. c #948F90",
",. c #969292",
"<. c #9A9595",
"1. c #9C9897",
"2. c #9E9A99",
"3. c #A19D9C",
"4. c #A5A19F",
"5. c #A6A2A1",
"6. c #AAA6A4",
"7. c #ADA9A7",
"8. c #AEABA9",
"9. c #B2AEAC",
"0. c #B5B1AE",
"q. c #B7B3B1",
"w. c #B9B5B2",
"e. c #BDB9B6",
"r. c #BFBCB9",
"t. c #C0BCB7",
"y. c #C1BEBA",
"u. c #C5C2BE",
"i. c #C8C4BF",
"p. c #C7C4C0",
"a. c #C9C6C1",
"s. c #CDCAC5",
"d. c #CFCCC8",
"f. c #D0CDC7",
"g. c #D1CEC9",
"h. c #D5D2CC",
"j. c #D9D6CF",
"k. c #D9D6D1",
"l. c #DDDAD5",
"z. c #DFDDD8",
"x. c #E0DED7",
"c. c #E1DFD9",
"v. c #E3E1DB",
"b. c #E6E4E0",
"n. c #E8E6E1",
"m. c None",
/* pixels */
"m.m.m.m.m.m.m.m.m.m.m.m.m.m.m.m.m.m.m.m.m.,.<.,.,.,.>.*.*.m.m.m.m.m.m.m.m.m.m.m.m.m.m.m.m.m.m.m.m.m.",
"m.m.m.m.m.m.m.m.m.m.m.m.m.m.m.m.m.m.m.=.r.h.l.k.g.v.k.p.3.%.m.m.m.m.m.m.m.m.m.m.m.m.m.m.m.m.m.m.m.m.",
"m.m.m.m.m.m.m.m.m.m.m.m.m.m.m.m.=.=.! 2.h.l.l.z.l.c.v.g.3.&.c [ &._ m.m.m.m.m.m.m.m.m.m.m.m.m.m.m.m.",
"m.m.m.m.m.m.m.m.m.m.m.m.m.m.,.9.w.2._ ( s.g.h.k.z.v.k.p.=.T _ ,.0.u.,.[ m.m.m.m.m.m.m.m.m.m.m.m.m.m.",
"m.m.m.m.m.m.m.m.m.m.m.[ %.6.u.h.g.u.*.T 1.u.s.s.h.f.d.9.( c 0.j.v.v.k.u.,.~ ( m.m.m.m.m.m.m.m.m.m.m.",
"m.m.m.m.m.m.m.m.m.%.5.y.s.s.y.s.e.8.>.! ^ 1.5.6.0.u.7.*.E _ k.v.v.l.v.k.r.6.=.( m.m.m.m.m.m.m.m.m.m.",
"m.m.m.m.m.m.m.m.m.E ,.u.u.w.0.8.3.2.<.W i ! -.1.-.*._ T k *.h.j.k.v.x.k.h.8.*.! c m.m.m.m.m.m.m.m.m.",
"m.m.m.m.m.m.m.&.[ ~ c ( ;.5.7.8.5.,.=.Q p f T ! E c f p f [ w.i.d.h.h.s.0._ c ! _ %.( m.m.m.m.m.m.m.",
"m.m.m.m.m.m.=.q.d.u.-.$.! ! %.,.-.[ ~ k q : > > % & 2 > 6 x *.3.7.w.8.<._ k I 9.r.q.2.@.m.m.m.m.m.m.",
"m.m.m.m.m._ r.l.z.z.v.j.7.^ f c T x = : > w S v 1 S G N 2 ; 8 f ! ^ _ E %.9.e.s.g.g.r.2.` m.m.m.m.m.",
"m.m.m.m._ ;.h.j.j.x.v.j.e.*.x : 8 > & w C H } S n } } } D v % X @ 8 f ] 6.u.y.u.r.e.8.4.&.] m.m.m.m.",
"m.m.m.m.%.4.0.u.w.i.g.s.0.[ x f q N w n G } } D n ..}  .G m 2 2 % = Z ] 3.e.5.8.6.5.4.<.$._ m.m.m.m.",
"m.m.m.m.c E ! _ &.-.<.<.*.! f 8 m G m N H +. .G n +.} } H N 0 0 2 $ < T &.5.5.2.-.&._ E z T c m.m.m.",
"m.m.U ,.5.<.` ` k k W ! U p : 0 H } C C  .#. .G n O. .} } V 0 w V 2 $ < U W ~ ( x j W _ 2.9.-.! m.m.",
"m.m.4.l.z.k.k.l.r.1.! 9 8 % 0 D } } n N X.#. .G v  . .{ } G 0 v V b 2 $ . 9 c @.5.p.g.k.b.b.a.2.m.m.",
"m.m.<.k.l.l.x.v.h.r.:.W k O N G  .} v C X.#...G v  ...H } G 0 v D V 5 ; . c ] q.g.z.j.z.c.l.s.3.m.m.",
"m.m.-.e.s.j.h.h.g.r.3._ f 1 v S } H w N | o.{ V v H o.{ { m 3 b F m 5 ; o ' 5.s.h.l.l.x.h.p.5.%.m.m.",
"m.m.=.0.0.y.a.a.r.6.>.( f , q q B Z B B A A B B B T T Z Z B < 5 Z d < - O ' 3.q.a.a.a.i.q.5.;._ E m.",
"m.T &.4.3.1.3.2.,.=.` ~ s x h I Q ) _ ' / I ) ) ) R I / / / R R ) I a < - ( *.;.<.3.3.>.=.%.] _ U m.",
"m.m.T ! ! W x h z p p p o = : @ : : : , - > i i > > - : , - = , < - = o   8 h x T T x x c k h k E m.",
"m.m.U ~ %.*.*.*.&.$.! x - & 0 S N b 2 n S F S v 2 G F v N m 1 5 v 5 2 ; O W @.-.>.<.1.>.@.W f U m.m.",
"m.m.&.7.s.g.k.a.w.6.:.^ 8 3 m } G S 5 F  . .H M v | o.F F V 3 m N M v 2 > @.e.s.h.h.s.e.6.;.%.( m.m.",
"m.m.&.8.t.f.h.f.9.2.;.~ : 0 D } } G 3 | ..| | N n o.o.} H S 2 F F S n 0 q ;.f.h.s.s.p.w.8.>.[ ~ m.m.",
"m.m.E ` *.3.6.3.=.` T z - 0 { } } G 2 }  .H ..N n X.| O.} V 3 H | H N 0 > [ <.1.<.<.<.<.-.~ h f m.m.",
"m.m.! &.,.3.<.&.p Q E p o v { { } D & H O.} } N n  .X.o. .S w H ..H S 2 O W _ x _ *.*.*.*.` W U m.m.",
"m.! ;.h.c.v.v.k.q.5.;.( 8 v { { } H 0 H ..}  .S n | O.X. .S v H O.S N 2 > <.y.e.u.j.s.u.u.r.7.=.m.m.",
"m.! 2.a.h.j.k.j.d.q.2.[ x m G ..o.{ & H X.}  .S N } .... .F M H o.H N 3 q 9.f.i.i.k.h.d.s.8.5.-.m.m.",
"m.T -.w.u.s.g.s.e.2.%.^ f m D o.} D 0 D ..} } S M |  ...H F N | } D V 5 q ,.u.f.h.h.d.s.w.3.<.&.m.m.",
"m.c ^ ,.4.9.0.4.;.%.` E < b F H D m 0 D  .H | F n .. ...H G C ! } D S w > _ ,.0.u.y.w.7.3.,._ ~ m.m.",
"m.m.9 p h c x z f p , : O v T I k s 8 n  .H  .C n X. .O.| G S { } D S w & q f z x c T T x c i I m.m.",
"m.m.T [ =.>.;.<.:.=.@.T , 4 a Q $.a 8 >  .| ..G C  .} +.{ D S } | S S 0 > E ( [ &.;.;.;.=.%.T c m.m.",
"m.U $.6.e.s.g.k.s.e.q.=.f 5 i a Y , , ;  .+.X.H M H O.O.G D S } ..D S 3 q ` :.0.u.d.s.y.e.9.1._ c m.",
"m.c &.u.l.l.v.v.k.i.w.*.p v > i i =   ;  .O. .G w  .+.O.D F N |  .G S 5 2 ,.y.z.z.k.h.f.i.w.5.&.Q m.",
"m.z $.p.z.x.z.v.l.h.r.-.s N w ; - - ; 5 O...| S 0 | O.O.D F N H | F V w q =.e.h.h.j.h.h.f.w.6.*.T m.",
"m.z ^ 7.d.z.z.z.j.u.9.&.p C S D F F v M  .O.} V 0 .. .O.{ D M G  .D m 3 < @.5.u.d.f.h.f.r.7.1.[ T m.",
"m.p ! :.8.w.u.u.w.4.-.E : N G H H H M v  .X.H V 0  .| ..H S n S ..G m 2 : ! @.3.8.w.0.8.2.<.&._ T m.",
"m.m.z f T ~ _ ( ! c f , o 5 N F N N 2 2 V V N 5 % M b S N 5 2 3 V V 3 $ X , p T ^ ^ ! ! ~ W z j m.m.",
"m.m._ -.2.2.<.,.-.-.[ ~ 8 : h I Y Y R R R Y T Y I Y I I I Y h I I h a , @ R ( =.-.;.2.4.2.,.@.~ m.m.",
"m.W 4.k.z.v.z.j.v.z.l.5.I Y Y I / $.$.) Y R ' $.) / R R ) / I Y ) R h a 8 3.h.v.v.z.z.v.c.h.r.=.m.m.",
"m.E 1.a.h.j.z.k.k.j.s.1.j = , = < i a a < i h s s a , a h h < i a < = = , 6.h.k.l.k.k.k.a.e.6.[ m.m.",
"m.m.^ &.;.;.3.5.5.1.;.^ 8 1 v v v 5 2 1 m N b 5 ; v n n M w & ; 5 v 5 & % @.,.3.3.2.<.-.*.@.~ U m.m.",
"m.m.f T W Q ( ^ ` ~ z p O 3 v b b v 3 3 S D V v 1 N G S V v 2 2 V b 0 & O 8 E ! ( ~ ( ~ W P x s m.m.",
"m.T @.4.4.7.8.w.w.6.*.E > 2 v m N b 5 0 S S S b 5 S D V S v 2 3 V V v & 8 :.6.0.w.w.e.w.0.4.&.T m.m.",
"m.T 6.t.9.w.e.t.e.w.6.( < 2 v V N b 0 5 V D S M w M D D V v 1 v D S m 2 q 0.s.h.f.s.s.e.u.e.<.! m.m.",
"m.c %.2.5.9.9.7.5.,.&.! , 2 w V S m 3 w V H G N 5 n H V S n 2 w D S b 2 q 2.0.0.0.0.0.8.<.4.[ ! m.m.",
"m.I ( ;.1.5.3.1.,.*._ Z , 2 3 N m m 2 w S { G b 5 M G S G n > w D V b 2 q &.6.3.,.-.-.*.9 P u t c m.",
"m.c k T T z 7 f p p 8 : * X O ; 2 1 % - > 5 5 2 & 3 v v w & X % 5 w ; $ , x U x ~ <.] 7 # e y r u m.",
"m.E I _ ( E ! &.&.,.3.` t u K x =.5.:.( T ( @.~ Q ~ ( T ! Z 8 ;.9.3.%.` -.[ &.` x ( E 6 J J J L L K ",
"m.z ( ` f @.3.;.T z ~ T : 6 6 : ! [ ! T ,.;.6.4.1.3.3.@.A ~ ! p [ ` Q ~ T T < s W &.^ x 6 r r 7 r 7 ",
"m.m.m.m.z x k d z f x i 9 8 : 8 s m.f k _ _ ` ] [ ^ ^ ^ c k f p m.m.m.m.m.T m.m.U f 8 8 s m.m.m.m.m."
};
