/* XPM */
static char *result[] = {
/* columns rows colors chars-per-pixel */
"50 50 82 1 ",
"  c #F8EED8",
". c #F8EED7",
"X c #F9EDD7",
"o c #F9EFD9",
"O c #F9EFDA",
"+ c #F9EFDB",
"@ c #FAF0DC",
"# c #FBF0DC",
"$ c #FCEFDC",
"% c #FCF0DD",
"& c #FCF1DD",
"* c #FCF1DB",
"= c #FCF1DA",
"- c #FAEFD9",
"; c #FCF0DC",
": c #F8EED9",
"> c #F8EEDA",
", c #FAEFDB",
"< c #FBEFD9",
"1 c #F7EDD6",
"2 c #F7EDD8",
"3 c #FAEFD8",
"4 c #FBEFD7",
"5 c #FBEFDB",
"6 c #F9EEDA",
"7 c #FAEEDA",
"8 c #FAEFDA",
"9 c #FBEFD8",
"0 c #F6ECD5",
"q c #F6ECD6",
"w c #F6ECD7",
"e c #F9EED9",
"r c #FCF1DF",
"t c #FBF0DD",
"y c #F7EDD7",
"u c #F7ECD8",
"i c #F8EDD8",
"p c #FBF0D9",
"a c #FCF1E1",
"s c #FCF1E2",
"d c #FCF1DE",
"f c #FBF0DA",
"g c #FAEFD7",
"h c #FAEED6",
"j c #FCF0D9",
"k c #FDF2E3",
"l c #FAEFD6",
"z c #F9EED5",
"x c #FDF2DF",
"c c #FCF2E3",
"v c #FDF2E0",
"b c #FBF1DD",
"n c #FAF0DB",
"m c #FBF1DC",
"M c #FBF0D8",
"N c #FCF1DC",
"B c #FBF0DB",
"V c #F8ECD8",
"C c #F7EDD9",
"Z c #F6EBD7",
"A c #F7EBD7",
"S c #FAEED7",
"D c #FAEED5",
"F c #F7ECD7",
"G c #F9EED8",
"H c #F9EED6",
"J c #F9EED4",
"K c #F9EED3",
"L c #F9EDD6",
"P c #F9EFDC",
"I c #FCF1D9",
"U c #FCF0D8",
"Y c #FBEFD6",
"T c #FCF0DA",
"R c #F9EDD8",
"E c #FAEED3",
"W c #FAEED4",
"Q c #FAEED8",
"! c #F9EED7",
"~ c #F9EDD4",
"^ c #FBEED5",
"/ c #FCEDD5",
/* pixels */
" .XXoO+@#####$$%&&*==============-----------------",
" .. O++@######;&&&*==============-----------------",
" ...:>+,#######&&&*==============------<-------<<<",
" 1112::O,,,####&&&*==============-----343--55-4444",
" 11122:67,,####&&&*==============-----343-8##89444",
".10qw2:ee,,####&&&*==============-----343-#rrt-444",
" ywwuiieee6,,,####*==============-----344p&asdfghh",
">222iiie,ee,,,,###*==============-----344jdkkr=lzz",
"++++,,,66ee,,,,###*==============-------9jxccv=lzz",
"@bbb&&#56ee,,,,###*==============ppppppp9p&vvdflzz",
"@nn@m&#,6ee,,,,###*=====================M9fNNB<lzz",
"+:::,,,8eee,,,,###*=====================M4<f=<4lzz",
">2uuViieeee,,,,###*=====================M444444lzz",
"OCZZAiiii66,,,####*==============fffffff3ShhDDhhzz",
"+:ZZFieee,,#######*==============-------GXHzJKzzzz",
"@>uuiieee,,#######*==============-------GXLHzJzzzz",
"P+22iieee,,#######*==============-------GXXXzzzzzz",
"O::2iieee,,##*****=============fp--GGGGGXXXXzzzzzz",
":::2iieee,,##==================p---XXXXXXXXXzzzzzz",
"::::e6,,,,,##==================p---XXXXXXXXXzzzzzz",
"::::e6,,,,,##==================p--3XXXXXXXXXzzzzzz",
"ee,Oe6,,,f===================Ij9994HHHHHHHHHXXXLzz",
"e6,,68,,,====================IU4444zzzzzzzzzXXXLzz",
"e6,,,,###*===================IU444YzzzzzzzzzXXXLzz",
"e6,,,,###*===================U444zzzzzzzzzzzXXXLzz",
"e6,,,,###*===Uj=============T9lllzzzzzzzzzzzXXXLzz",
"RG888f*##*===Uj=============T9hzzzzzzzzzzzzzHLLHzz",
"XG---p=*#*===Uj=============T9hzzzzzzzzzzzzzzzzzzz",
"----f===*====================944hzzzzJJJJJJJDDDDDD",
"----=========================U444zzzzKKKKKKKDDDDDD",
"9999UjjI=====================M444zzzzKKKKKKKEWWWDD",
"4444UUUI==================f--9444zzzzKKKKKKKEEEWDD",
"UUUUUUUI=======###*======----4444zzzzKKKKKKKEEEWDD",
"UUUUUUUI======*###*=====f-QXX4444zzzzKKKKKKKEEEWDD",
"UUUUUUUI======*###*=------QXX4444zzzzKKKKKKKEEEWDD",
"jjjjjIII=======NBBfp<<<<33!XXS44hDDDDWWWWWWWWWWWDD",
"----============f-3444444zzzzzzzzDDDDDDDDDDDDDDD~~",
"----============f-94llllzzzzzzzzzDDDDDDDDDDDDDDD~~",
"----============f-94zzzzzzzzzzzzzDDDDDDDDDDDDDDD~~",
"----=======ppppp--ghzzDDDDDDDDDDDDDDDDDDDDDDDDDD~~",
"----=======-------!zzzDDDDDDDDDDDDDDDDDDDDDDDDDD~~",
"----=======--44444hzzzDDDDDDDDDDDDDDDDDDDDDDDDDD~~",
"----=======-344444hzzzDDDDDDDDDDDDDDDDDDDDDDDDDD~~",
"---------94HzzzDDDDDDDDDDDDDDDDDDDDDDDDDDDDDDDDD~~",
"---------94zzzzDDDDDDDDDDDDDDDDDDDDDDDDDDDDDDDDD~~",
"---------94zzKKEEEWDDDDDDDDDDDDDDDDDDDDDDDDDDDDD~~",
"----QQQQQglzzKKEEEWDDD^^^^^^^^^^^DDDDDDDDDDDDDDD~~",
"----XXXXXHzzzKKEEEWDDD///////////DDDDDDDDDDDDDDD~~",
"----XXXXXHzzzKKEEEWDDD///////////DDDDDDDDDDDDDDD~~",
"----XXXXXHzzzKKEEEWDDD///////////DDDDDDDDDDDDDDD~~"
};
