/* XPM */
static char *result[] = {
/* columns rows colors chars-per-pixel */
"50 50 229 2 ",
"   c #5D2D3E",
".  c #67373F",
"X  c #5E443E",
"o  c #694A3E",
"O  c #151B4D",
"+  c #16174E",
"@  c #0E1453",
"#  c #101555",
"$  c #141A53",
"%  c #1A1C55",
"&  c #1C1D5B",
"*  c #191756",
"=  c #0F164F",
"-  c #291B4A",
";  c #3A1747",
":  c #3D1B4B",
">  c #381849",
",  c #281D54",
"<  c #1D234A",
"1  c #1B2252",
"2  c #1F225D",
"3  c #2C264F",
"4  c #3C224D",
"5  c #37244C",
"6  c #3A334C",
"7  c #242A55",
"8  c #2C2C54",
"9  c #23235C",
"0  c #292958",
"q  c #3C2B55",
"w  c #362957",
"e  c #2C325C",
"r  c #36345D",
"t  c #38385C",
"y  c #1E1F60",
"u  c #2C2B62",
"i  c #272668",
"p  c #322E61",
"a  c #3B3562",
"s  c #393868",
"d  c #373779",
"f  c #431C4C",
"g  c #4B1F4E",
"h  c #451D51",
"j  c #44224C",
"k  c #4B244D",
"l  c #432A4B",
"z  c #4B2B4C",
"x  c #482546",
"c  c #552C4B",
"v  c #5A2C4C",
"b  c #542947",
"n  c #4D3445",
"m  c #52344C",
"M  c #5B374A",
"N  c #4B2552",
"B  c #482853",
"V  c #552D52",
"C  c #5C2D52",
"Z  c #48385A",
"A  c #523452",
"S  c #5A3A56",
"D  c #633543",
"F  c #62344E",
"G  c #6B3B4D",
"H  c #66394A",
"J  c #6D3C53",
"K  c #633652",
"L  c #6D3850",
"P  c #443A65",
"I  c #3B435D",
"U  c #3C4367",
"Y  c #48455F",
"T  c #574656",
"R  c #584C4F",
"E  c #694449",
"W  c #74424C",
"Q  c #784A49",
"!  c #765149",
"~  c #644354",
"^  c #6B4B59",
"/  c #734254",
"(  c #7B4554",
")  c #7B4B55",
"_  c #774B57",
"`  c #795556",
"'  c #6A574E",
"]  c #7B624B",
"[  c #75615C",
"{  c #454165",
"}  c #4A4263",
"|  c #434965",
" . c #49486A",
".. c #524B6C",
"X. c #564A64",
"o. c #4B5668",
"O. c #57566A",
"+. c #444478",
"@. c #534C76",
"#. c #5A5573",
"$. c #4C5276",
"%. c #674D67",
"&. c #67586A",
"*. c #73576D",
"=. c #645977",
"-. c #724B66",
";. c #5C636B",
":. c #5A6375",
">. c #78656A",
",. c #616A73",
"<. c #786877",
"1. c #6A7677",
"2. c #717D79",
"3. c #65646A",
"4. c #8A543E",
"5. c #885549",
"6. c #824D54",
"7. c #814A58",
"8. c #895453",
"9. c #875758",
"0. c #935C5B",
"q. c #9A5D5A",
"w. c #935A59",
"e. c #8A574C",
"r. c #A25F5F",
"t. c #98674B",
"y. c #896557",
"u. c #9B625D",
"i. c #986E58",
"p. c #967357",
"a. c #86694C",
"s. c #A2625D",
"d. c #AB6D5D",
"f. c #A36A5A",
"g. c #A3745B",
"h. c #AB734D",
"j. c #895262",
"k. c #925B63",
"l. c #886769",
"z. c #986762",
"x. c #98736A",
"c. c #916E77",
"v. c #86757E",
"b. c #896E75",
"n. c #A86B65",
"m. c #A87567",
"M. c #B67A62",
"N. c #B87B69",
"B. c #A57975",
"V. c #C07D66",
"C. c #7E8B7F",
"Z. c #B98958",
"A. c #B48A53",
"S. c #99846F",
"D. c #AA8676",
"F. c #BB8775",
"G. c #B9957E",
"H. c #B68C68",
"J. c #C69457",
"K. c #D8A45C",
"L. c #C6856A",
"P. c #C99468",
"I. c #C89579",
"U. c #D59975",
"Y. c #C48B74",
"T. c #E19F77",
"R. c #D5A679",
"E. c #E2A779",
"W. c #E4B765",
"Q. c #3F4280",
"!. c #484A87",
"~. c #4D528F",
"^. c #56558A",
"/. c #585B97",
"(. c #4E5192",
"). c #5C649C",
"_. c #596197",
"`. c #526182",
"'. c #676786",
"]. c #74798D",
"[. c #71728D",
"{. c #626BA4",
"}. c #6369A5",
"|. c #6A75AA",
" X c #6D79B1",
".X c #717CB4",
"XX c #8B7887",
"oX c #8C7283",
"OX c #7B8982",
"+X c #7E8493",
"@X c #7885BA",
"#X c #7D8AC0",
"$X c #899A85",
"%X c #898A8F",
"&X c #A3938A",
"*X c #B49888",
"=X c #A58E8F",
"-X c #95A887",
";X c #9CB28C",
":X c #A0B78C",
">X c #B1B599",
",X c #969BAA",
"<X c #9091A8",
"1X c #9CA3AC",
"2X c #A5ACB6",
"3X c #A4ABB9",
"4X c #ABB3B9",
"5X c #C09982",
"6X c #C9A991",
"7X c #D5B694",
"8X c #DBA883",
"9X c #E6B787",
"0X c #E5B58E",
"qX c #E2BEA5",
"wX c #A8C28E",
"eX c #ACC692",
"rX c #B2CE97",
"tX c #F3C38F",
"yX c #EBC597",
"uX c #F1C798",
"iX c #F5D39B",
"pX c #EEC08A",
"aX c #F4D6A3",
"sX c #ECD0A7",
"dX c #919BC5",
"fX c #BABBC4",
"gX c #BAC2C8",
"hX c #C2CACF",
"jX c None",
/* pixels */
"jXjXjXjXjXjXjXjXjXjXjXjXjXjXjXjXjXjXjXjXjXX.} t 8 jXjXjX} jXjXjXjXjXjXjXjXjXjXjXjXjXjXjXjXjXjXjXjXjX",
"jXjXjXjXjXjXjXjXjXjXjXjXjXjXjXjXjXjXjXjXO.<.#.@.r r P .. .{ t jXjXjXjXjXjXjXjXjXjXjXjXjXjXjXjXjXjXjX",
"jXjXjXjXjXjXjXjXjXjXjXjXjXjXjXjXjXjXjXY O.Y P P p a #.....{ s 8 jXjXjXjXjXjXjXjXjXjXjXjXjXjXjXjXjXjX",
"jXjXjXjXjXjXjXjXjXjXjXjXjXjXjXjXjX&.[.<.=...a a r  .P =.=. .2 1 1 jXjXjXjXjXjXjXjXjXjXjXjXjXjXjXjXjX",
"jXjXjXjXjXjXjXjXjXjXjXjXjXjXjXjXjXX.a a P 0 0 p  ...@...+.{ u % $ 1 jXjXjXjXjXjXjXjXjXjXjXjXjXjXjXjX",
"jXjXjXjXjXjXjXjXjXjXjXjXjXjXjXjXjX0 r @.r * + q w 0 9 9 & % % & = $ < jXjXjXjXjXjXjXjXjXjXjXjXjXjXjX",
"jXjXjXjXjXjXjXjXjXjXjXjXjXjXjXjXjXt =.p + 5 x.sX6X8 & s { a u % # O % 1 jXjXjXjXjXjXjXjXjXjXjXjXjXjX",
"jXjXjXjXjXjXjXjXjXjXjXjXjXjXjXjXjX@.P $ t 6XaX>X>.m.q + 0 t i 2 @ + = 1 jXjXjXjXjXjXjXjXjXjXjXjXjXjX",
"jXjXjXjXjXjXjXjXjXjXjXjXjXjXjXjXjXt 7 1 t 7X*XY e m.k.q &X-.* 2 # $ $ 1 jXjXjXjXjXjXjXjXjXjXjXjXjXjX",
"jXjXjXjXjXjXjXjXjXjXjXjXjXjXjXjXjXjX< jX3 ^ T 8 fXG.u.9.q.M & # # # $ % $ O 1 jXjXjXjXjXjXjXjXjXjXjX",
"jXjXjXjXjXjXjXjXjXjXjXjXjXjXjXjXjXjXjXjXjXS.I.XX*X8Xk.G e.W 5 $ # # @ + O O jXjXjXjXjXjXjXjXjXjXjXjX",
"jXjXjXjXjXjXjXjXjXjXjXjXjXjXjXjXjXjXjXjX<.qXI.yXiXU.q.G P.J.l * & 0 * * jXjXjXjXjXjXjXjXjXjXjXjXjXjX",
"jXjXjXjXjXjXjXjXjXjXjXjXjXjXjXjXjXjXjXjXT 9.m.aXuXU.6.V b z l b.<XS.` N 5 jXjXjXjXjXjXjXjXjXjXjXjXjX",
"jXjXjXjXjXjXjXjXjXjXjXjXjXjXjXjXjXjXjXjX>.E *XI.tXN.F _ n.9.XXdX&Xg.K %.-.jXjXjXjXjXjXjXjXjXjXjXjXjX",
"jXjXjXjXjXjXjXjXjXjXjXjXjXjXjXjXjXjXjXp.&X<.I.9XI.L c N.g.c.2X=Xg.Q 7XiX9X0.jXjXjXjXjXjXjXjXjXjXjXjX",
"jXjXjXjXjXjXjXjXjXjXjXjXjXjXjXjXjXjXjXA.<Xc.W W J j.J 8Xi.v.,XF.D *XaXtXE.n.B jXjXjXjXjXjXjXjXjXjXjX",
"jXjXjXjXjXjXjXjXjXjXjXjXjXjXjXjXjXjX] p.oXc.: M N.m.e.f.g.<.XXV 7.0XtXE.L.k.k jXjXjXjXjXjXjXjXjXjXjX",
"jXjXjXjXjXjXjXjXjXjXjXjXjXjXjXjXjXjXjXy.-.S E H.t.P.R.e.J #.*.B 0.P.U.M.n.7.J jXjXjXjXjXjXjXjXjXjXjX",
"jXjXjXjXjXjXjXjXjXjXjXjXjXjXjXjXjXjXjX^ X.X.A.J.Q t.W.t.F -.A k 9.9X9XU.d.m.8X( jXjXjXjXjXjXjXjXjXjX",
"jXjXjXjXjXjXjXjXjXjXjXjXjXjXjXjXjXjXjXT T D.W.K.` J.K.Z.i.a u q N.aXiX9XU.L.qXn.A jXjXjXjXjXjXjXjXjX",
"jXjXjXjXjXjXjXjXjXjXjXjXjXjXjXjXjXjXjXb.v.<.A.h.Z.h.f.K P !.P p K 6XsX9XV.N.Y.m.7.B q jXjXjXjXjXjXjX",
"jXjXjXjXjXjXjXjXjXjXjXjXjXjXjXjXjXjXjX*Xl.dX#.` K.A.A !./.!.!.i & B B.N.r.G.M.m.7.F B jXjXjXjXjXjXjX",
"jXjXjXjXjXjXjXjXjXjXjXjXjXjXjXjXjX^ G.q.6.^.@X/.&...(./. X).!.d i y * Z G n.u.e.H G z z jXjXjXjXjXjX",
"jXjXjXjXjXjXjXjXjXjXjXjXjXjXjXjX` x.g.6.J #.<X@X|.). X X(.(.(.!.i & * | ^ d.N.w.G H x l jXjXjXjXjXjX",
"jXjXjXjXjXjXjXjXjXjXjXjXjXjXjXjXz.M.f.w./ Z {.{.{. X{.{..X}.(.d 2 i 9 { z.s.8.G b F V z jXjXjXjXjXjX",
"jXjXjXjXjXjXjXjXjXjXjXjXjXjXjXjXz.q.( H F N @._.).|.{./.Q.i y y i &  ...W w.6.G k : > jXjXjXjXjXjXjX",
"jXjXjXjXjXjXjXjXjXjXjXjXS.Z.o jX8.y.q.6.v j m E a.a.! l n M m S M ; r X.8.6.Q H V f > jXjXjXjXjXjXjX",
"jXjXjXjXjXjXjXjXjXjXjXjXp.A.4.5.w.x.F J A 4 ` f.8.  t.. Q 5.Q H b f w *.F.u.( G b : 4 jXjXjXjXjXjXjX",
"jXjXjXjXjXjXjXjXjXjXjXjXjXa.h.Q G.yX/ v N P 6.5.5.D Q F W ) G b 4 > , &X0XT.V.n.( k jXjXjXjXjXjXjXjX",
"jXjXjXjXjXjXjXjXjXjXjXjXjX` a.~ z.Y.9.y.Z $.@.q ! 5.E 4 w r 0 , y i i l.uXU.T.L.q.v jXjXjXjXjXjXjXjX",
"jXjXjXjXjXjXjXjXjXjXjXjXjXl.~ 9.5.W F.N.S |.@X(._ 9.V Q.}..X).}.!.s 2 *.I.q.E.U.n.J l jXjXjXjXjXjXjX",
"jXjXjXjXjXjXjXjXjXjXjXjXjX} } E ` A k._ +.dXdX'.7XE.Z (..X.X<X/.e e 7 P K ( 8XN.j./ jXjXjXjXjXjXjXjX",
"jXjXjXjXjXjXjXjXjXjXjXjX].2X&.D.^ !   o.o.`.{.XXyXP.P /. X).U o.OXo.U t c.I.N.z z jXjXjXjXjXjXjXjXjX",
"jXjXjXjXjXjXjXjXjXjXjXjXfX<X{ Z E t.4.R eX$X| l M m 7 1 1 U 1.;X-XC.o.e jXS c jXjXjXjXjXjXjXjXjXjXjX",
"jXjXjXjXjXjXjXjXjXjXjX2X2X,.O.y.R ' ] eXrX-XC.;.U e 7 1 o.2.-X:X-X$X:.U jXjXjXjXjXjXjXjXjXjXjXjXjXjX",
"jXjXjXjXjXjXjXjXjXjX1XgX].'.R ' T jX;.eX;X-X$X1.o.I 7 2 :.;XwX;X;X-X1.| 7 jXjXjXjXjXjXjXjXjXjXjXjXjX",
"jXjXjXjXjXjXjXjXjX+XhX%X<Xo.6 X.jXjXjX,.$X:XOX,.U e < jXo.rXeX-X$XS.1.7 3 jXjXjXjXjXjXjXjXjXjXjXjXjX",
"jXjXjXjXjXjXjXjXjXgX1X,X:.jXjXjXjXjXjXy.' ;.:. .e O - 4 t OX$X3.o.o.| 3 z jXjXjXjXjXjXjXjXjXjXjXjXjX",
"jXjXjXjXjXjXjXjX4X3X1X].jXjXjXjXjXjXjXh.Z.n 8 3 5 j h : jX6 R H.H.t.- 5 k jXjXjXjXjXjXjXjXjXjXjXjXjX",
"jXjXjXjXjXjXjX1XgX2X,XjXjXjXjXjXjXjXjXE D M v N k ; - 4 jX^ ! h.a.t.  > j jXjXjXjXjXjXjXjXjXjXjXjXjX",
"jXjXjXjXjXjX].gX1X3XjXjXjXjXjXjXjXjXjXjXz c k k : : 4 > jXjXE W F x : : N l jXjXjXjXjXjXjXjXjXjXjXjX",
"jXjXjXjXjXjX3X4X<X:.jXjXjXjXjXjXjXjXjXjXjXz x : ; h 4 5 jXjXl.x j f f h : jXjXjXjXjXjXjXjXjXjXjXjXjX",
"jXjXjXjXjXjX1X+X$.jXjXjXjXjXjXjXjXjXjXjXjX9.k.( V : 5 jXjXjX4 _ / ) _ K 4 jXjXjXjXjXjXjXjXjXjXjXjXjX",
"jXjXjXjXjXjXjXjXjXjXjXjXjXjXjXjXjXjXjXjX~ ` ) J C N jXjXjXjXjX~ u.w.J C j jXjXjXjXjXjXjXjXjXjXjXjXjX",
"jXjXjXjXjXjXjXjXjXjXjXjXjXjXjXjXjXjXjXjXk b c v k f 4 jXjXjXjX~ 9.Q M f h : jXjXjXjXjXjXjXjXjXjXjXjX",
"jXjXjXjXjXjXjXjXjXjXjXjXjXjXjXjXjXX x.u.8.J V f : ; ; jXjXjXjXM H b k k j f jXjXjXjXjXjXjXjXjXjXjXjX",
"jXjXjXjXjXjXjXjXjXjXjXjXjXjXjXjXD.P.V.M.s.G g g h f ; jXjXjXjX0.w.0.w.9.( C f jXjXjXjXjXjXjXjXjXjXjX",
"jXjXjXjXjXjXjXjXjXjXjXjXjXjXjXjXu.d.d.d.r.J f h f f ; jXjXjXjX8.u.R.U.L.M.r.K jXjXjXjXjXjXjXjXjXjXjX",
"jXjXjXjXjXjXjXjXjXjXjXjXjXjXjXjXF ( ( ( J k jXjXjXjXjXjXjXjXjXK u.M.M.M.d.q.F jXjXjXjXjXjXjXjXjXjXjX",
"jXjXjXjXjXjXjXjXjXjXjXjXjXjXjXjXjXjXjXjXjXjXjXjXjXjXjXjXjXjXjXj / ) 6.7.) J jXjXjXjXjXjXjXjXjXjXjXjX"
};
