/* XPM */
static char *result[] = {
/* columns rows colors chars-per-pixel */
"50 50 56 1 ",
"  c #37303E",
". c #3C3341",
"X c #4A434D",
"o c #524A53",
"O c #554F58",
"+ c #565159",
"@ c #5B555C",
"# c #5E585E",
"$ c #5F5960",
"% c #625D63",
"& c #656066",
"* c #676269",
"= c #6B656B",
"- c #6D696E",
"; c #70686F",
": c #736D72",
"> c #757175",
", c #787477",
"< c #767278",
"1 c #7B7679",
"2 c #7E797C",
"3 c #817B7E",
"4 c #837E81",
"5 c #868183",
"6 c #898586",
"7 c #8B8688",
"8 c #8E898A",
"9 c #918C8D",
"0 c #948F90",
"q c #969292",
"w c #9A9695",
"e c #9E9A9A",
"r c #A29E9D",
"t c #A5A2A1",
"y c #AAA6A4",
"u c #ACA9A7",
"i c #ADAAA9",
"p c #B2AEAB",
"a c #B5B1AE",
"s c #B6B2B0",
"d c #B9B5B1",
"f c #BDBAB6",
"g c #C0BBB7",
"h c #C2BEB9",
"j c #C6C1BC",
"k c #C9C4BF",
"l c #C9C6C1",
"z c #CECAC5",
"x c #D1CDC7",
"c c #D2CFC9",
"v c #D5D3CD",
"b c #D9D6D1",
"n c #DCD9D3",
"m c #E0DED8",
"M c #E3E1DB",
"N c None",
/* pixels */
"N><::11,2:::2>>-:1,,2:>-3>>-:11,2>>:2>>-:1,11:>:>N",
"5uiffajkffar5ipffajkffar5ipffajlffae6upffajjffar02",
"6jzvvbvcxxja6jzcvbbczzhs6jzcvbvczzja6kzcvbbczchsw5",
"4hvnMmvcckfd4jvmMmvcczfs4jvmMmvcclfd4hvmMmvcczfsq5",
"<dbmnvbckffu1dvMnbnczffu,fvmnvbckffu1dvMnvbclffiq2",
",ujzclzlgur4,ukkckzlfue6,ijzclzlfpe6,ujzclzlfie62&",
"-->252221>;=&->33322,>-=*->23322,;;=&-,243121>:*o+",
"&+$%$@ .X+%$&+&&$@  X+%#%+$&$@ .o+$$&+%&$@ .X+$$#=",
"-wjzka#%4ry9-wjkkp#%5ry8-wjcka#%4ry8;wjkla#%6ry874",
">dbMvg@3rrut:gbMbg@3rrur>fbMbf@3rrut:gnMbf+2rrut92",
"=jvnnx@,trte=kvmnx@,trtr=jvnbc@,trrr-jvnbv#,trre6,",
"&ajvvj#=erw8&akkbj@=rrq8%pkcbj#*rrq8%pkcvj#=erw82;",
"+4wrr8XX;>;$+4qrr8XX->:%+4qrr8Xo;>;#@3qrr9Xo->:$++",
"=>1>343343,;;>1>343452>=->1>242343,;;>,>242353>-:>",
"4yfjjddgfdpw4ygjjddgfdpe4ygjjddfgdpr3yghjddfddpr82",
"3ajakjggjjjy4pjdkjggjjjy3pjakkgggjjy4pjdkjggjjjt73",
"1ihfjdaiidir2ihfjapppdpr,pggjdppadpe1phfkdapaair66",
">radjfjlfurq>radjgjkfurq>radjgjkduew>radhfhjdirq94",
">0iajfjjair9>0iajgjjaur8>quakgjjair8>0iajfjkaur973",
">8tpaagaiyw8>8tiapjpuye9>6rpaagauye8>8tisahauiw833",
":40qtiiitqq6:40wtuuyyw06>5qwtiiitw06:5qwtiiytwq633",
">14368qw9854>14269ww9643:13258qw8754>,4269qw884431",
"*#@+@%&&&&&@*#@+@%&&&%%#&#@+@%&&&&&$&#@+@&&&&&%#$>",
"=5ww9088qw82=5ww9088ww83=5ww9q880w82=4we8q88qw823;",
"-ijfudhdjdiq:ikfudhdjdiq-ikfidjajdiw-ujfudhdjdpq7;",
"-qtepyudgii0-0tepyisfpu0-qteiyisgii9-qteayusfpy91-",
"&>1255789862&>1355789852&>1355789862&>1355789862=:",
"N->:-1,,1->:2:>--1,,1:>:2:>--2,,1:::2:>-;,,<1:>:,3",
"5iiffajlffdr5ipffajlgfsr6uiffajlffdr6uadfajkffdr93",
"6jzvbbvxzcha6kzcvnvczzhs6kzvvnvxzxhs6jzvbbvvzzhaw5",
"5fvMMnvvclfd4jvmMmvcclfs3jvmmmvcclfs4hvMMmvcvlfdq5",
",fvMnvbclffi,dvMnvbczffi1dbmnvbvzffi,dvmnvbclffuq2",
",yjxxzzkfur4,ujxxxljdur41phxxzzkdur4,ujxxkllgur41%",
"-=>233211::%*;:233331>:%%;:333311>;=*;>23323,::=OO",
"*+$%$@  X+%%&+%%$@  X+%%%+%%$@  X+%%%+%%%+ .X+%%@-",
"-wjxla$&5ry9:whxka$%4ry9:whxkd$%4rt8;wjxla$%4rt783",
">fbMvf+2rrut:fbMbg@3rrut:fbMbf+3rtit:gnmbf@3rtut93",
"=jvnbx#,trtr=jvnnx@,trtr=jvnnx@,trrr;hcmbz%1yrtr7>",
"$ajvbj#*erq8%alcvj@=rrq8%plvvj@=rrq7%plcvh#%rr071;",
"+5wer9Xo;:;%+4qrr8Xo;:;$+5qrr9Xo;::%+4qrr9XX;::%+@",
";:1>243353>;->,,243353>;;:1>253343>-;>2>343333:;;,",
"3yghjdsfgdae3ygjjdddgdpr3yghjadfgdae4tfjhddgggpr91",
"3ajdkjfhhjht3pjdljfhhhht3ajdkjfhjjjt3ajslhhghhhr63",
"1phgjdapadpr3pggjdpiddpr3phgjdppaaur2phfhgppddpr66",
",radjfhjfyrq>rpfhfhlfyew>rpdjfjlgyrq<eadhhhlgur084",
":qyajfljaur8:9yalfljair9>qyajfjjpyr9<0ushhjhpur983",
">8tisshaiye8>8tpssfsuyw8>7tissfapye8:8tisshapuw843",
">4qwtiuutw97>4qqtiiutw97>5qwtiiytqq6<40wtpuytw9731",
":,4259qe8854>,3359wq9754>,3278ww9844>13359qw98444,",
"*#@+@%&&&%%#&#@+@%&&&&&#&@@+@&&&&$&#&@+@@&&&&&%@@>"
};
